<svg id="visual" viewBox="0 0 900 600" width="900" height="600" xmlns="http://www.w3.org/2000/svg" xmlns:xlink="http://www.w3.org/1999/xlink" version="1.1"><rect width="900" height="600" fill="#fff"></rect><g><g transform="translate(388 204)"><path d="M0 -103.3L89.5 -51.7L89.5 51.7L0 103.3L-89.5 51.7L-89.5 -51.7Z" stroke="#afd7ce" fill="none" stroke-width="2"></path></g><g transform="translate(116 513)"><path d="M0 -66L57.2 -33L57.2 33L0 66L-57.2 33L-57.2 -33Z" stroke="#afd7ce" fill="none" stroke-width="2"></path></g><g transform="translate(790 97)"><path d="M0 -72L62.4 -36L62.4 36L0 72L-62.4 36L-62.4 -36Z" stroke="#afd7ce" fill="none" stroke-width="2"></path></g><g transform="translate(478 11)"><path d="M0 -37L32 -18.5L32 18.5L0 37L-32 18.5L-32 -18.5Z" stroke="#afd7ce" fill="none" stroke-width="2"></path></g><g transform="translate(167 183)"><path d="M0 -87L75.3 -43.5L75.3 43.5L0 87L-75.3 43.5L-75.3 -43.5Z" stroke="#afd7ce" fill="none" stroke-width="2"></path></g><g transform="translate(774 358)"><path d="M0 -18L15.6 -9L15.6 9L0 18L-15.6 9L-15.6 -9Z" stroke="#afd7ce" fill="none" stroke-width="2"></path></g><g transform="translate(345 534)"><path d="M0 -78L67.5 -39L67.5 39L0 78L-67.5 39L-67.5 -39Z" stroke="#afd7ce" fill="none" stroke-width="2"></path></g><g transform="translate(882 542)"><path d="M0 -101L87.5 -50.5L87.5 50.5L0 101L-87.5 50.5L-87.5 -50.5Z" stroke="#afd7ce" fill="none" stroke-width="2"></path></g><g transform="translate(529 438)"><path d="M0 -17L14.7 -8.5L14.7 8.5L0 17L-14.7 8.5L-14.7 -8.5Z" stroke="#afd7ce" fill="none" stroke-width="2"></path></g><g transform="translate(6 19)"><path d="M0 -23L19.9 -11.5L19.9 11.5L0 23L-19.9 11.5L-19.9 -11.5Z" stroke="#afd7ce" fill="none" stroke-width="2"></path></g><g transform="translate(601 207)"><path d="M0 -73L63.2 -36.5L63.2 36.5L0 73L-63.2 36.5L-63.2 -36.5Z" stroke="#afd7ce" fill="none" stroke-width="2"></path></g></g></svg>