<svg id="visual" viewBox="0 0 450 900" width="450" height="900" xmlns="http://www.w3.org/2000/svg" xmlns:xlink="http://www.w3.org/1999/xlink" version="1.1"><path d="M0 64L9.3 65.5C18.7 67 37.3 70 56.2 70C75 70 94 67 112.8 68.5C131.7 70 150.3 76 169 80.5C187.7 85 206.3 88 225 92.5C243.7 97 262.3 103 281.2 101.5C300 100 319 91 337.8 88C356.7 85 375.3 88 394 89.5C412.7 91 431.3 91 440.7 91L450 91L450 0L440.7 0C431.3 0 412.7 0 394 0C375.3 0 356.7 0 337.8 0C319 0 300 0 281.2 0C262.3 0 243.7 0 225 0C206.3 0 187.7 0 169 0C150.3 0 131.7 0 112.8 0C94 0 75 0 56.2 0C37.3 0 18.7 0 9.3 0L0 0Z" fill="#ffffff"></path><path d="M0 181L9.3 178C18.7 175 37.3 169 56.2 172C75 175 94 187 112.8 188.5C131.7 190 150.3 181 169 187C187.7 193 206.3 214 225 223C243.7 232 262.3 229 281.2 218.5C300 208 319 190 337.8 187C356.7 184 375.3 196 394 197.5C412.7 199 431.3 190 440.7 185.5L450 181L450 89L440.7 89C431.3 89 412.7 89 394 87.5C375.3 86 356.7 83 337.8 86C319 89 300 98 281.2 99.5C262.3 101 243.7 95 225 90.5C206.3 86 187.7 83 169 78.5C150.3 74 131.7 68 112.8 66.5C94 65 75 68 56.2 68C37.3 68 18.7 65 9.3 63.5L0 62Z" fill="#eff7f5"></path><path d="M0 379L9.3 373C18.7 367 37.3 355 56.2 341.5C75 328 94 313 112.8 308.5C131.7 304 150.3 310 169 328C187.7 346 206.3 376 225 380.5C243.7 385 262.3 364 281.2 352C300 340 319 337 337.8 340C356.7 343 375.3 352 394 356.5C412.7 361 431.3 361 440.7 361L450 361L450 179L440.7 183.5C431.3 188 412.7 197 394 195.5C375.3 194 356.7 182 337.8 185C319 188 300 206 281.2 216.5C262.3 227 243.7 230 225 221C206.3 212 187.7 191 169 185C150.3 179 131.7 188 112.8 186.5C94 185 75 173 56.2 170C37.3 167 18.7 173 9.3 176L0 179Z" fill="#dfefeb"></path><path d="M0 568L9.3 562C18.7 556 37.3 544 56.2 542.5C75 541 94 550 112.8 565C131.7 580 150.3 601 169 607C187.7 613 206.3 604 225 593.5C243.7 583 262.3 571 281.2 559C300 547 319 535 337.8 532C356.7 529 375.3 535 394 547C412.7 559 431.3 577 440.7 586L450 595L450 359L440.7 359C431.3 359 412.7 359 394 354.5C375.3 350 356.7 341 337.8 338C319 335 300 338 281.2 350C262.3 362 243.7 383 225 378.5C206.3 374 187.7 344 169 326C150.3 308 131.7 302 112.8 306.5C94 311 75 326 56.2 339.5C37.3 353 18.7 365 9.3 371L0 377Z" fill="#cfe7e1"></path><path d="M0 640L9.3 638.5C18.7 637 37.3 634 56.2 641.5C75 649 94 667 112.8 683.5C131.7 700 150.3 715 169 715C187.7 715 206.3 700 225 691C243.7 682 262.3 679 281.2 664C300 649 319 622 337.8 610C356.7 598 375.3 601 394 614.5C412.7 628 431.3 652 440.7 664L450 676L450 593L440.7 584C431.3 575 412.7 557 394 545C375.3 533 356.7 527 337.8 530C319 533 300 545 281.2 557C262.3 569 243.7 581 225 591.5C206.3 602 187.7 611 169 605C150.3 599 131.7 578 112.8 563C94 548 75 539 56.2 540.5C37.3 542 18.7 554 9.3 560L0 566Z" fill="#bfdfd7"></path><path d="M0 901L9.3 901C18.7 901 37.3 901 56.2 901C75 901 94 901 112.8 901C131.7 901 150.3 901 169 901C187.7 901 206.3 901 225 901C243.7 901 262.3 901 281.2 901C300 901 319 901 337.8 901C356.7 901 375.3 901 394 901C412.7 901 431.3 901 440.7 901L450 901L450 674L440.7 662C431.3 650 412.7 626 394 612.5C375.3 599 356.7 596 337.8 608C319 620 300 647 281.2 662C262.3 677 243.7 680 225 689C206.3 698 187.7 713 169 713C150.3 713 131.7 698 112.8 681.5C94 665 75 647 56.2 639.5C37.3 632 18.7 635 9.3 636.5L0 638Z" fill="#afd7ce"></path></svg>