<svg id="visual" viewBox="0 0 900 600" width="900" height="600" xmlns="http://www.w3.org/2000/svg" xmlns:xlink="http://www.w3.org/1999/xlink" version="1.1"><rect width="900" height="600" fill="#fff"></rect><g><g transform="translate(171 216)"><path d="M0 -144.1L124.8 -72L124.8 72L0 144.1L-124.8 72L-124.8 -72Z" fill="#afd7ce"></path></g><g transform="translate(674 377)"><path d="M0 -138L119.5 -69L119.5 69L0 138L-119.5 69L-119.5 -69Z" fill="#afd7ce"></path></g><g transform="translate(535 97)"><path d="M0 -113L97.9 -56.5L97.9 56.5L0 113L-97.9 56.5L-97.9 -56.5Z" fill="#afd7ce"></path></g><g transform="translate(362 443)"><path d="M0 -95L82.3 -47.5L82.3 47.5L0 95L-82.3 47.5L-82.3 -47.5Z" fill="#afd7ce"></path></g><g transform="translate(53 594)"><path d="M0 -127L110 -63.5L110 63.5L0 127L-110 63.5L-110 -63.5Z" fill="#afd7ce"></path></g><g transform="translate(879 165)"><path d="M0 -137L118.6 -68.5L118.6 68.5L0 137L-118.6 68.5L-118.6 -68.5Z" fill="#afd7ce"></path></g><g transform="translate(883 597)"><path d="M0 -118L102.2 -59L102.2 59L0 118L-102.2 59L-102.2 -59Z" fill="#afd7ce"></path></g></g></svg>